<svg version="1.1" id="Layer_1" xmlns="http://www.w3.org/2000/svg" xmlns:xlink="http://www.w3.org/1999/xlink" x="0px" y="0px"
	 width="100%" viewBox="0 0 512 512" enable-background="new 0 0 512 512" xml:space="preserve">
<path fill="#000000" opacity="1.000000" stroke="none" 
	d="
M513.000000,280.000000 
	C513.000000,357.637329 513.000000,435.274658 513.000000,512.955994 
	C342.427124,512.955994 171.854248,512.955994 1.000000,512.955994 
	C1.000000,378.311462 1.000000,243.622711 1.361970,108.425018 
	C2.808847,109.722908 4.115063,111.434059 4.944154,113.351517 
	C12.569813,130.987473 20.072701,148.676498 27.689138,166.316467 
	C39.712009,194.161880 51.855850,221.955200 63.835014,249.819336 
	C75.421150,276.769257 86.825172,303.797424 98.380875,330.760498 
	C109.211678,356.032135 120.206467,381.233826 130.933701,406.549103 
	C132.321091,409.823303 133.954056,411.112640 137.527588,411.069336 
	C152.025192,410.893524 166.527802,411.109161 181.024460,410.898041 
	C183.711426,410.858917 188.173203,410.190887 188.750061,408.658783 
	C191.455368,401.473724 198.903473,395.091919 196.161819,386.970856 
	C191.991791,374.618774 186.142120,362.829712 180.931076,350.833984 
	C171.684555,329.548645 162.329422,308.310425 153.115768,287.010925 
	C140.885818,258.738495 128.781052,230.411942 116.561172,202.135147 
	C104.654709,174.583603 92.540558,147.121002 80.776367,119.509109 
	C74.916039,105.754227 71.230438,103.002983 55.999016,103.002197 
	C37.666012,103.001251 19.333006,103.000717 1.000000,103.000000 
	C1.000000,69.017494 1.000000,35.034981 1.000000,1.026237 
	C171.561371,1.026237 342.122772,1.026237 513.000000,1.026237 
	C513.000000,77.355057 513.000000,153.710541 512.630310,230.775467 
	C511.824036,229.646820 511.362610,227.814240 510.954620,225.969833 
	C502.077972,185.841904 480.812500,153.926056 446.708130,131.051651 
	C417.061646,111.167198 384.599854,100.916634 348.341522,103.695786 
	C340.978851,104.260124 338.319458,107.292374 335.960754,113.152901 
	C328.292938,132.204605 320.262848,151.110138 312.458374,170.107330 
	C309.490417,177.331818 306.756409,184.652420 303.651672,192.047638 
	C303.341461,192.611771 303.295380,193.057480 303.249268,193.503204 
	C303.727234,193.230164 304.205200,192.957092 304.955750,192.474228 
	C306.062103,191.768677 306.969940,191.365097 307.718933,190.763718 
	C326.176239,175.944199 347.321869,169.442825 370.576782,173.256241 
	C396.192932,177.456863 416.293945,191.319153 430.932892,212.813385 
	C439.288025,225.081238 443.993683,238.660706 445.023438,253.528137 
	C446.209503,270.652893 440.014343,285.739655 431.873322,300.107727 
	C424.298065,313.477264 414.027008,324.432190 400.358002,331.989288 
	C382.760559,341.718262 364.050110,343.847137 344.671509,339.884674 
	C329.065094,336.693512 314.927399,329.790070 302.927887,319.295685 
	C285.961761,304.457642 275.766663,285.950867 274.805511,261.790588 
	C273.782776,263.757538 273.217224,264.679260 272.803619,265.664764 
	C261.878174,291.698425 250.963272,317.736511 240.061295,343.779999 
	C238.315842,347.949707 237.904556,351.025757 241.473068,355.553284 
	C253.941177,371.372040 268.972412,383.824249 286.597809,393.138153 
	C310.827606,405.942078 336.681763,411.324524 364.188019,410.178925 
	C382.088531,409.433350 399.265991,406.198181 415.922485,399.920380 
	C432.288666,393.752045 447.303955,385.088043 460.622009,373.766022 
	C473.406372,362.897705 484.409332,350.298676 492.602570,335.626312 
	C501.892609,318.989685 508.633362,301.328552 511.080658,282.239746 
	C511.185211,281.424561 512.336365,280.743530 513.000000,280.000000 
M222.163330,158.745560 
	C221.151718,161.366241 220.208817,164.015884 219.118134,166.603256 
	C204.390762,201.540680 189.583893,236.444962 175.036499,271.457062 
	C174.095963,273.720703 174.370255,277.106445 175.338699,279.449829 
	C184.451019,301.499023 193.837189,323.435028 203.145233,345.403351 
	C204.988388,349.753418 206.835495,354.101807 209.278717,359.860321 
	C245.258026,273.523041 280.626373,188.651840 316.130035,103.455917 
	C314.486206,103.235870 313.673462,103.033028 312.860535,103.032120 
	C295.699219,103.012794 278.537048,102.929329 261.377258,103.091965 
	C258.126404,103.122772 254.858383,104.028175 251.645294,104.741707 
	C246.637207,105.853851 243.484207,108.623215 241.441132,113.734055 
	C235.479538,128.647186 228.858078,143.296539 222.163330,158.745560 
z"/>
<path fill="#E63946" opacity="1.000000" stroke="none" 
	d="
M513.000000,279.531342 
	C512.336365,280.743530 511.185211,281.424561 511.080658,282.239746 
	C508.633362,301.328552 501.892609,318.989685 492.602570,335.626312 
	C484.409332,350.298676 473.406372,362.897705 460.622009,373.766022 
	C447.303955,385.088043 432.288666,393.752045 415.922485,399.920380 
	C399.265991,406.198181 382.088531,409.433350 364.188019,410.178925 
	C336.681763,411.324524 310.827606,405.942078 286.597809,393.138153 
	C268.972412,383.824249 253.941177,371.372040 241.473068,355.553284 
	C237.904556,351.025757 238.315842,347.949707 240.061295,343.779999 
	C250.963272,317.736511 261.878174,291.698425 272.803619,265.664764 
	C273.217224,264.679260 273.782776,263.757538 274.805511,261.790588 
	C275.766663,285.950867 285.961761,304.457642 302.927887,319.295685 
	C314.927399,329.790070 329.065094,336.693512 344.671509,339.884674 
	C364.050110,343.847137 382.760559,341.718262 400.358002,331.989288 
	C414.027008,324.432190 424.298065,313.477264 431.873322,300.107727 
	C440.014343,285.739655 446.209503,270.652893 445.023438,253.528137 
	C443.993683,238.660706 439.288025,225.081238 430.932892,212.813385 
	C416.293945,191.319153 396.192932,177.456863 370.576782,173.256241 
	C347.321869,169.442825 326.176239,175.944199 307.718933,190.763718 
	C306.969940,191.365097 306.062103,191.768677 304.764587,192.284805 
	C304.172485,192.179871 304.044128,192.054535 303.915771,191.929214 
	C306.756409,184.652420 309.490417,177.331818 312.458374,170.107330 
	C320.262848,151.110138 328.292938,132.204605 335.960754,113.152901 
	C338.319458,107.292374 340.978851,104.260124 348.341522,103.695786 
	C384.599854,100.916634 417.061646,111.167198 446.708130,131.051651 
	C480.812500,153.926056 502.077972,185.841904 510.954620,225.969833 
	C511.362610,227.814240 511.824036,229.646820 512.630310,231.242447 
	C513.000000,247.020889 513.000000,263.041779 513.000000,279.531342 
z"/>
<path fill="#2A4C66" opacity="1.000000" stroke="none" 
	d="
M1.000000,103.416664 
	C19.333006,103.000717 37.666012,103.001251 55.999016,103.002197 
	C71.230438,103.002983 74.916039,105.754227 80.776367,119.509109 
	C92.540558,147.121002 104.654709,174.583603 116.561172,202.135147 
	C128.781052,230.411942 140.885818,258.738495 153.115768,287.010925 
	C162.329422,308.310425 171.684555,329.548645 180.931076,350.833984 
	C186.142120,362.829712 191.991791,374.618774 196.161819,386.970856 
	C198.903473,395.091919 191.455368,401.473724 188.750061,408.658783 
	C188.173203,410.190887 183.711426,410.858917 181.024460,410.898041 
	C166.527802,411.109161 152.025192,410.893524 137.527588,411.069336 
	C133.954056,411.112640 132.321091,409.823303 130.933701,406.549103 
	C120.206467,381.233826 109.211678,356.032135 98.380875,330.760498 
	C86.825172,303.797424 75.421150,276.769257 63.835014,249.819336 
	C51.855850,221.955200 39.712009,194.161880 27.689138,166.316467 
	C20.072701,148.676498 12.569813,130.987473 4.944154,113.351517 
	C4.115063,111.434059 2.808847,109.722908 1.361970,107.958038 
	C1.000000,106.611107 1.000000,105.222221 1.000000,103.416664 
z"/>
<path fill="#2A4C66" opacity="1.000000" stroke="none" 
	d="
M222.329315,158.397430 
	C228.858078,143.296539 235.479538,128.647186 241.441132,113.734055 
	C243.484207,108.623215 246.637207,105.853851 251.645294,104.741707 
	C254.858383,104.028175 258.126404,103.122772 261.377258,103.091965 
	C278.537048,102.929329 295.699219,103.012794 312.860535,103.032120 
	C313.673462,103.033028 314.486206,103.235870 316.130035,103.455917 
	C280.626373,188.651840 245.258026,273.523041 209.278717,359.860321 
	C206.835495,354.101807 204.988388,349.753418 203.145233,345.403351 
	C193.837189,323.435028 184.451019,301.499023 175.338699,279.449829 
	C174.370255,277.106445 174.095963,273.720703 175.036499,271.457062 
	C189.583893,236.444962 204.390762,201.540680 219.118134,166.603256 
	C220.208817,164.015884 221.151718,161.366241 222.329315,158.397430 
z"/>
<path fill="#E63946" opacity="1.000000" stroke="none" 
	d="
M304.492004,192.494614 
	C304.205200,192.957092 303.727234,193.230164 303.249268,193.503204 
	C303.295380,193.057480 303.341461,192.611771 303.651672,192.047638 
	C304.044128,192.054535 304.172485,192.179871 304.492004,192.494614 
z"/>
</svg>